<svg xmlns="http://www.w3.org/2000/svg" viewBox="0 0 620 300" font-family="IBM Plex Sans, system-ui, sans-serif" font-size="15">
  <rect width="100%" height="100%" fill="#ffffff"/>
  <text x="145" y="22" text-anchor="middle" fill="#5c6b76" font-size="13">grid</text><text x="500" y="49" text-anchor="middle" fill="#5c6b76" font-size="13">largest local values</text>
  <g fill="#ffffff" stroke="#b9c4cd" stroke-width="1.4"><path d="M20 30H270V280H20ZM70 30V280M120 30V280M170 30V280M220 30V280M20 80H270M20 130H270M20 180H270M20 230H270"/><path d="M425 60H575V210H425ZM475 60V210M525 60V210M425 110H575M425 160H575"/></g>
  <rect x="120" y="130" width="50" height="50" fill="#e5ebfa" stroke="#4169E1" stroke-width="2"/>
  <path d="M292 155 H390" stroke="#4169E1" stroke-width="2"/><path d="M390 155 l-10 -6 v12 z" fill="#4169E1"/>
  <g fill="#1a2026" text-anchor="middle"><text x="45" y="61">1</text><text x="95" y="61">1</text><text x="145" y="61">1</text><text x="195" y="61">1</text><text x="245" y="61">1</text><text x="45" y="111">1</text><text x="95" y="111">1</text><text x="145" y="111">1</text><text x="195" y="111">1</text><text x="245" y="111">1</text><text x="45" y="161">1</text><text x="95" y="161">1</text><text x="145" y="161">2</text><text x="195" y="161">1</text><text x="245" y="161">1</text><text x="45" y="211">1</text><text x="95" y="211">1</text><text x="145" y="211">1</text><text x="195" y="211">1</text><text x="245" y="211">1</text><text x="45" y="261">1</text><text x="95" y="261">1</text><text x="145" y="261">1</text><text x="195" y="261">1</text><text x="245" y="261">1</text><text x="450" y="91">2</text><text x="500" y="91">2</text><text x="550" y="91">2</text><text x="450" y="141">2</text><text x="500" y="141">2</text><text x="550" y="141">2</text><text x="450" y="191">2</text><text x="500" y="191">2</text><text x="550" y="191">2</text></g>
</svg>
