<svg xmlns="http://www.w3.org/2000/svg" viewBox="0 0 660 270" font-family="IBM Plex Sans, system-ui, sans-serif" font-size="14">
<rect width="100%" height="100%" fill="#ffffff"/>
<line x1="55" y1="55" x2="225" y2="55" stroke="#1a2026" stroke-width="2"/>
<line x1="55" y1="55" x2="375" y2="55" stroke="#1a2026" stroke-width="2"/>
<line x1="55" y1="55" x2="425" y2="195" stroke="#1a2026" stroke-width="2"/>
<line x1="90" y1="195" x2="225" y2="55" stroke="#1a2026" stroke-width="2"/>
<line x1="90" y1="195" x2="425" y2="195" stroke="#1a2026" stroke-width="2"/>
<line x1="90" y1="195" x2="530" y2="55" stroke="#1a2026" stroke-width="2"/>
<line x1="90" y1="195" x2="610" y2="195" stroke="#1a2026" stroke-width="2"/>
<line x1="225" y1="55" x2="375" y2="55" stroke="#1a2026" stroke-width="2"/>
<line x1="225" y1="55" x2="425" y2="195" stroke="#1a2026" stroke-width="2"/>
<line x1="265" y1="195" x2="530" y2="55" stroke="#1a2026" stroke-width="2"/>
<line x1="375" y1="55" x2="425" y2="195" stroke="#1a2026" stroke-width="2"/>
<line x1="425" y1="195" x2="530" y2="55" stroke="#1a2026" stroke-width="2"/>
<line x1="425" y1="195" x2="610" y2="195" stroke="#1a2026" stroke-width="2"/>
<circle cx="55" cy="55" r="23" fill="#ffffff" stroke="#1a2026" stroke-width="2"/><text x="55" y="61" text-anchor="middle" fill="#1a2026" font-size="17" font-weight="700">2</text>
<circle cx="90" cy="195" r="23" fill="#ffffff" stroke="#1a2026" stroke-width="2"/><text x="90" y="201" text-anchor="middle" fill="#1a2026" font-size="17" font-weight="700">3</text>
<circle cx="225" cy="55" r="23" fill="#ffffff" stroke="#1a2026" stroke-width="2"/><text x="225" y="61" text-anchor="middle" fill="#1a2026" font-size="17" font-weight="700">6</text>
<circle cx="265" cy="195" r="23" fill="#ffffff" stroke="#1a2026" stroke-width="2"/><text x="265" y="201" text-anchor="middle" fill="#1a2026" font-size="17" font-weight="700">7</text>
<circle cx="375" cy="55" r="23" fill="#ffffff" stroke="#1a2026" stroke-width="2"/><text x="375" y="61" text-anchor="middle" fill="#1a2026" font-size="17" font-weight="700">4</text>
<circle cx="425" cy="195" r="23" fill="#ffffff" stroke="#1a2026" stroke-width="2"/><text x="425" y="201" text-anchor="middle" fill="#1a2026" font-size="17" font-weight="700">12</text>
<circle cx="530" cy="55" r="23" fill="#ffffff" stroke="#1a2026" stroke-width="2"/><text x="530" y="61" text-anchor="middle" fill="#1a2026" font-size="17" font-weight="700">21</text>
<circle cx="610" cy="195" r="23" fill="#ffffff" stroke="#1a2026" stroke-width="2"/><text x="610" y="201" text-anchor="middle" fill="#1a2026" font-size="17" font-weight="700">39</text>
</svg>
