<svg xmlns="http://www.w3.org/2000/svg" viewBox="0 0 500 330" font-family="IBM Plex Sans, system-ui, sans-serif" font-size="14">
  <defs>
    <marker id="aI" viewBox="0 0 10 10" refX="9" refY="5" markerWidth="6.5" markerHeight="6.5" orient="auto-start-reverse">
      <path d="M 0 0 L 10 5 L 0 10 z" fill="#1a2026"/>
    </marker>
  </defs>
  <rect width="100%" height="100%" fill="#ffffff"/>
  <!-- 1 -> 2 sweeps underneath -->
  <path d="M 400 127 C 370 295 130 300 99 244" fill="none" stroke="#1a2026" stroke-width="1.5" marker-end="url(#aI)"/>
  <line x1="268" y1="52" x2="385" y2="100" stroke="#1a2026" stroke-width="1.5" marker-end="url(#aI)"/>
  <line x1="250" y1="64" x2="250" y2="211" stroke="#1a2026" stroke-width="1.5" marker-end="url(#aI)"/>
  <line x1="262" y1="59" x2="392" y2="210" stroke="#1a2026" stroke-width="1.5" marker-end="url(#aI)"/>
  <line x1="395" y1="121" x2="272" y2="214" stroke="#1a2026" stroke-width="1.5" marker-end="url(#aI)"/>
  <line x1="410" y1="129" x2="410" y2="211" stroke="#1a2026" stroke-width="1.5" marker-end="url(#aI)"/>
  <line x1="109" y1="230" x2="231" y2="230" stroke="#1a2026" stroke-width="1.5" marker-end="url(#aI)"/>
  <line x1="269" y1="230" x2="391" y2="230" stroke="#1a2026" stroke-width="1.5" marker-end="url(#aI)"/>
  <g font-weight="600" text-anchor="middle">
    <circle cx="250" cy="45" r="18" fill="#dbe4fb" stroke="#4169E1" stroke-width="2"/>
    <text x="250" y="50" fill="#1a2026">0</text>
    <circle cx="410" cy="110" r="18" fill="#ffffff" stroke="#1a2026" stroke-width="1.7"/>
    <text x="410" y="115" fill="#1a2026">1</text>
    <circle cx="90" cy="230" r="18" fill="#ffffff" stroke="#1a2026" stroke-width="1.7"/>
    <text x="90" y="235" fill="#1a2026">2</text>
    <circle cx="250" cy="230" r="18" fill="#ffffff" stroke="#1a2026" stroke-width="1.7"/>
    <text x="250" y="235" fill="#1a2026">3</text>
    <circle cx="410" cy="230" r="18" fill="#dbe4fb" stroke="#4169E1" stroke-width="2"/>
    <text x="410" y="235" fill="#1a2026">4</text>
  </g>
  <text x="250" y="318" text-anchor="middle" fill="#1a2026" font-size="12.5">five paths: 0→4 · 0→3→4 · 0→1→3→4 · 0→1→2→3→4 · 0→1→4</text>
</svg>
