<svg xmlns="http://www.w3.org/2000/svg" viewBox="0 0 620 300" font-family="IBM Plex Sans, system-ui, sans-serif" font-size="14">
<rect width="100%" height="100%" fill="#ffffff"/>
<line x1="30" y1="250" x2="590" y2="250" stroke="#1a2026" stroke-width="5"/>
<g stroke="#3b4147" stroke-width="18" stroke-linecap="round"><line x1="90" y1="65" x2="90" y2="245"/><line x1="175" y1="65" x2="175" y2="245"/><line x1="420" y1="65" x2="420" y2="245"/><line x1="530" y1="65" x2="530" y2="245"/></g>
<g fill="none" stroke-width="13"><ellipse cx="90" cy="232" rx="36" ry="13" stroke="#4169E1"/><ellipse cx="90" cy="214" rx="36" ry="13" stroke="#d9363e"/><ellipse cx="90" cy="196" rx="36" ry="13" stroke="#2caf4a"/><ellipse cx="90" cy="178" rx="36" ry="13" stroke="#d9363e"/><ellipse cx="90" cy="160" rx="36" ry="13" stroke="#4169E1"/><ellipse cx="90" cy="142" rx="36" ry="13" stroke="#2caf4a"/><ellipse cx="530" cy="232" rx="36" ry="13" stroke="#d9363e"/></g>
<g fill="#1a2026" text-anchor="middle" font-size="18"><text x="90" y="285">0</text><text x="175" y="285">1</text><text x="420" y="285">6</text><text x="530" y="285">9</text><text x="290" y="235" font-size="28">…</text><text x="478" y="235" font-size="28">…</text></g>
</svg>
